<?xml version="1.0" encoding="UTF-8"?>
<svg id="Calque_1" data-name="Calque 1" xmlns="http://www.w3.org/2000/svg" viewBox="0 0 171.73 127.36">
  <defs>
    <style>
      .cls-1 {
        fill: #fff;
      }

      .cls-2 {
        fill: none;
        stroke: #323366;
        stroke-miterlimit: 10;
        stroke-width: 12px;
      }
    </style>
  </defs>
  <path class="cls-2" d="M36.16,49.73c-1.8-13.28,18.43-21.31,34.09-13.9,21.99-21.78,47.73.93,41.62,12.05,25.97-4.32,33.99,11.12,32.08,20.69,53.08,21.93-4.2,71.04-30.93,41.39-24.01,20.38-50.02,11.05-58.04-9.27C5.85,112.55-12.96,61.59,36.16,49.73Z"/>
  <path class="cls-1" d="M31.13,29.99c-1.95-17.31,19.96-27.78,36.92-18.12,23.81-28.39,51.69,1.21,45.07,15.7,28.12-5.64,36.8,14.49,34.74,26.97,57.48,28.59-4.55,92.6-33.49,53.95-26,26.57-54.17,14.4-62.85-12.08C-1.68,111.88-22.06,45.45,31.13,29.99Z"/>
</svg>