<svg width="1512" height="1156" viewBox="0 0 1512 1156" fill="none" xmlns="http://www.w3.org/2000/svg">
<g clip-path="url(#clip0_287_1444)">
<rect width="1512" height="1156" fill="#5336BF"/>
<line x1="910.5" y1="2.18557e-08" x2="910.5" y2="1361" stroke="#B39DFF"/>
<path d="M636.5 92.2998C900.049 92.2998 1113.7 306.62 1113.7 571C1113.7 835.38 900.049 1049.7 636.5 1049.7C372.951 1049.7 159.3 835.38 159.3 571C159.3 306.62 372.951 92.2998 636.5 92.2998Z" stroke="#B39DFF" stroke-width="0.6"/>
<path d="M751.5 194.3C951.537 194.3 1113.7 356.909 1113.7 557.5C1113.7 758.091 951.537 920.7 751.5 920.7C551.463 920.7 389.3 758.091 389.3 557.5C389.3 356.909 551.463 194.3 751.5 194.3Z" stroke="#B39DFF" stroke-width="0.6"/>
<path d="M45.5 257L45.9051 258.095L47 258.5L45.9051 258.905L45.5 260L45.0949 258.905L44 258.5L45.0949 258.095L45.5 257Z" fill="#F1CBAA"/>
<path d="M807 201L809.161 206.839L815 209L809.161 211.161L807 217L804.839 211.161L799 209L804.839 206.839L807 201Z" fill="#F1CBAA"/>
<path d="M849.5 845L849.905 846.095L851 846.5L849.905 846.905L849.5 848L849.095 846.905L848 846.5L849.095 846.095L849.5 845Z" fill="#F1CBAA"/>
<path d="M83.5 842L83.9051 843.095L85 843.5L83.9051 843.905L83.5 845L83.0949 843.905L82 843.5L83.0949 843.095L83.5 842Z" fill="#F1CBAA"/>
<path d="M133.5 146L134.445 148.555L137 149.5L134.445 150.445L133.5 153L132.555 150.445L130 149.5L132.555 148.555L133.5 146Z" fill="white"/>
<path d="M1063 95L1064.35 98.6495L1068 100L1064.35 101.35L1063 105L1061.65 101.35L1058 100L1061.65 98.6495L1063 95Z" fill="white"/>
<path d="M939 734L940.35 737.65L944 739L940.35 740.35L939 744L937.65 740.35L934 739L937.65 737.65L939 734Z" fill="white"/>
<path d="M170 731L170.54 732.46L172 733L170.54 733.54L170 735L169.46 733.54L168 733L169.46 732.46L170 731Z" fill="white"/>
<path d="M142.5 425L142.905 426.095L144 426.5L142.905 426.905L142.5 428L142.095 426.905L141 426.5L142.095 426.095L142.5 425Z" fill="#F1CBAA"/>
<path d="M948.5 422L948.905 423.095L950 423.5L948.905 423.905L948.5 425L948.095 423.905L947 423.5L948.095 423.095L948.5 422Z" fill="#F1CBAA"/>
<path d="M946.5 1013L946.905 1014.09L948 1014.5L946.905 1014.91L946.5 1016L946.095 1014.91L945 1014.5L946.095 1014.09L946.5 1013Z" fill="#F1CBAA"/>
<path d="M235.5 1010L235.905 1011.09L237 1011.5L235.905 1011.91L235.5 1013L235.095 1011.91L234 1011.5L235.095 1011.09L235.5 1010Z" fill="#F1CBAA"/>
<path d="M492.5 291L492.905 292.095L494 292.5L492.905 292.905L492.5 294L492.095 292.905L491 292.5L492.095 292.095L492.5 291Z" fill="#C1C1C1"/>
<path d="M1309.5 423L1309.91 424.095L1311 424.5L1309.91 424.905L1309.5 426L1309.09 424.905L1308 424.5L1309.09 424.095L1309.5 423Z" fill="#C1C1C1"/>
<path d="M1307.5 1014L1307.91 1015.09L1309 1015.5L1307.91 1015.91L1307.5 1017L1307.09 1015.91L1306 1015.5L1307.09 1015.09L1307.5 1014Z" fill="#C1C1C1"/>
<path d="M497.5 903L498.445 905.555L501 906.5L498.445 907.445L497.5 910L496.555 907.445L494 906.5L496.555 905.555L497.5 903Z" fill="#C1C1C1"/>
<path d="M572 531L573.35 534.65L577 536L573.35 537.35L572 541L570.65 537.35L567 536L570.65 534.65L572 531Z" fill="#B39DFF"/>
<path d="M782 558L783.35 561.65L787 563L783.35 564.35L782 568L780.65 564.35L777 563L780.65 561.65L782 558Z" fill="#B39DFF"/>
<path d="M1460.5 551L1460.91 552.095L1462 552.5L1460.91 552.905L1460.5 554L1460.09 552.905L1459 552.5L1460.09 552.095L1460.5 551Z" fill="#B39DFF"/>
<path d="M1458.5 1142L1458.91 1143.09L1460 1143.5L1458.91 1143.91L1458.5 1145L1458.09 1143.91L1457 1143.5L1458.09 1143.09L1458.5 1142Z" fill="#B39DFF"/>
<path d="M683.5 1118L683.905 1119.09L685 1119.5L683.905 1119.91L683.5 1121L683.095 1119.91L682 1119.5L683.095 1119.09L683.5 1118Z" fill="#B39DFF"/>
<path d="M318 449L320.431 455.569L327 458L320.431 460.431L318 467L315.569 460.431L309 458L315.569 455.569L318 449Z" fill="#F1CBAA"/>
<path d="M1157.5 500L1157.91 501.095L1159 501.5L1157.91 501.905L1157.5 503L1157.09 501.905L1156 501.5L1157.09 501.095L1157.5 500Z" fill="#F1CBAA"/>
<path d="M1159 1091L1160.35 1094.65L1164 1096L1160.35 1097.35L1159 1101L1157.65 1097.35L1154 1096L1157.65 1094.65L1159 1091Z" fill="#F1CBAA"/>
<path d="M389.5 1088L389.905 1089.09L391 1089.5L389.905 1089.91L389.5 1091L389.095 1089.91L388 1089.5L389.095 1089.09L389.5 1088Z" fill="#F1CBAA"/>
<g filter="url(#filter0_d_287_1444)">
<path d="M642 143L642.54 144.46L644 145L642.54 145.54L642 147L641.46 145.54L640 145L641.46 144.46L642 143Z" fill="#F1CBAA"/>
</g>
<g filter="url(#filter1_d_287_1444)">
<path d="M1443 220L1444.62 224.379L1449 226L1444.62 227.621L1443 232L1441.38 227.621L1437 226L1441.38 224.379L1443 220Z" fill="#F1CBAA"/>
</g>
<g filter="url(#filter2_d_287_1444)">
<path d="M1449 731L1450.35 734.65L1454 736L1450.35 737.35L1449 741L1447.65 737.35L1444 736L1447.65 734.65L1449 731Z" fill="#F1CBAA"/>
</g>
<g filter="url(#filter3_d_287_1444)">
<path d="M680 728L680.54 729.46L682 730L680.54 730.54L680 732L679.46 730.54L678 730L679.46 729.46L680 728Z" fill="#F1CBAA"/>
</g>
<path d="M333 54L334.621 58.3795L339 60L334.621 61.6205L333 66L331.379 61.6205L327 60L331.379 58.3795L333 54Z" fill="#B39DFF"/>
<path d="M1134.5 51L1134.91 52.0949L1136 52.5L1134.91 52.9051L1134.5 54L1134.09 52.9051L1133 52.5L1134.09 52.0949L1134.5 51Z" fill="#B39DFF"/>
<path d="M368 639L368.81 641.19L371 642L368.81 642.81L368 645L367.19 642.81L365 642L367.19 641.19L368 639Z" fill="#B39DFF"/>
<path d="M104.5 14L104.905 15.0949L106 15.5L104.905 15.9051L104.5 17L104.095 15.9051L103 15.5L104.095 15.0949L104.5 14Z" fill="#F1CBAA"/>
<path d="M910.5 11L910.905 12.0949L912 12.5L910.905 12.9051L910.5 14L910.095 12.9051L909 12.5L910.095 12.0949L910.5 11Z" fill="#F1CBAA"/>
<path d="M884.5 600L884.905 601.095L886 601.5L884.905 601.905L884.5 603L884.095 601.905L883 601.5L884.095 601.095L884.5 600Z" fill="#F1CBAA"/>
<path d="M142.5 599L142.905 600.095L144 600.5L142.905 600.905L142.5 602L142.095 600.905L141 600.5L142.095 600.095L142.5 599Z" fill="#F1CBAA"/>
<path d="M40.5 536L40.9051 537.095L42 537.5L40.9051 537.905L40.5 539L40.0949 537.905L39 537.5L40.0949 537.095L40.5 536Z" fill="white"/>
<path d="M705.5 388L705.905 389.095L707 389.5L705.905 389.905L705.5 391L705.095 389.905L704 389.5L705.095 389.095L705.5 388Z" fill="white"/>
<path d="M788 1017L789.621 1021.38L794 1023L789.621 1024.62L788 1029L786.379 1024.62L782 1023L786.379 1021.38L788 1017Z" fill="white"/>
<path d="M1160.5 839L1160.91 840.095L1162 840.5L1160.91 840.905L1160.5 842L1160.09 840.905L1159 840.5L1160.09 840.095L1160.5 839Z" fill="white"/>
<path d="M78.5 1121L78.9051 1122.09L80 1122.5L78.9051 1122.91L78.5 1124L78.0949 1122.91L77 1122.5L78.0949 1122.09L78.5 1121Z" fill="white"/>
</g>
<defs>
<filter id="filter0_d_287_1444" x="636" y="143" width="12" height="12" filterUnits="userSpaceOnUse" color-interpolation-filters="sRGB">
<feFlood flood-opacity="0" result="BackgroundImageFix"/>
<feColorMatrix in="SourceAlpha" type="matrix" values="0 0 0 0 0 0 0 0 0 0 0 0 0 0 0 0 0 0 127 0" result="hardAlpha"/>
<feOffset dy="4"/>
<feGaussianBlur stdDeviation="2"/>
<feComposite in2="hardAlpha" operator="out"/>
<feColorMatrix type="matrix" values="0 0 0 0 0 0 0 0 0 0 0 0 0 0 0 0 0 0 0.25 0"/>
<feBlend mode="normal" in2="BackgroundImageFix" result="effect1_dropShadow_287_1444"/>
<feBlend mode="normal" in="SourceGraphic" in2="effect1_dropShadow_287_1444" result="shape"/>
</filter>
<filter id="filter1_d_287_1444" x="1433" y="220" width="20" height="20" filterUnits="userSpaceOnUse" color-interpolation-filters="sRGB">
<feFlood flood-opacity="0" result="BackgroundImageFix"/>
<feColorMatrix in="SourceAlpha" type="matrix" values="0 0 0 0 0 0 0 0 0 0 0 0 0 0 0 0 0 0 127 0" result="hardAlpha"/>
<feOffset dy="4"/>
<feGaussianBlur stdDeviation="2"/>
<feComposite in2="hardAlpha" operator="out"/>
<feColorMatrix type="matrix" values="0 0 0 0 0 0 0 0 0 0 0 0 0 0 0 0 0 0 0.25 0"/>
<feBlend mode="normal" in2="BackgroundImageFix" result="effect1_dropShadow_287_1444"/>
<feBlend mode="normal" in="SourceGraphic" in2="effect1_dropShadow_287_1444" result="shape"/>
</filter>
<filter id="filter2_d_287_1444" x="1440" y="731" width="18" height="18" filterUnits="userSpaceOnUse" color-interpolation-filters="sRGB">
<feFlood flood-opacity="0" result="BackgroundImageFix"/>
<feColorMatrix in="SourceAlpha" type="matrix" values="0 0 0 0 0 0 0 0 0 0 0 0 0 0 0 0 0 0 127 0" result="hardAlpha"/>
<feOffset dy="4"/>
<feGaussianBlur stdDeviation="2"/>
<feComposite in2="hardAlpha" operator="out"/>
<feColorMatrix type="matrix" values="0 0 0 0 0 0 0 0 0 0 0 0 0 0 0 0 0 0 0.25 0"/>
<feBlend mode="normal" in2="BackgroundImageFix" result="effect1_dropShadow_287_1444"/>
<feBlend mode="normal" in="SourceGraphic" in2="effect1_dropShadow_287_1444" result="shape"/>
</filter>
<filter id="filter3_d_287_1444" x="674" y="728" width="12" height="12" filterUnits="userSpaceOnUse" color-interpolation-filters="sRGB">
<feFlood flood-opacity="0" result="BackgroundImageFix"/>
<feColorMatrix in="SourceAlpha" type="matrix" values="0 0 0 0 0 0 0 0 0 0 0 0 0 0 0 0 0 0 127 0" result="hardAlpha"/>
<feOffset dy="4"/>
<feGaussianBlur stdDeviation="2"/>
<feComposite in2="hardAlpha" operator="out"/>
<feColorMatrix type="matrix" values="0 0 0 0 0 0 0 0 0 0 0 0 0 0 0 0 0 0 0.25 0"/>
<feBlend mode="normal" in2="BackgroundImageFix" result="effect1_dropShadow_287_1444"/>
<feBlend mode="normal" in="SourceGraphic" in2="effect1_dropShadow_287_1444" result="shape"/>
</filter>
<clipPath id="clip0_287_1444">
<rect width="1512" height="1156" fill="white"/>
</clipPath>
</defs>
</svg>
