<svg width="1512" height="1361" viewBox="0 0 1512 1361" fill="none" xmlns="http://www.w3.org/2000/svg">
<g clip-path="url(#clip0_306_1504)">
<rect width="1512" height="1361" fill="#875FE7"/>
<path d="M756 40.2998C1085.55 40.2998 1352.7 308.346 1352.7 639C1352.7 969.654 1085.55 1237.7 756 1237.7C426.453 1237.7 159.3 969.654 159.3 639C159.3 308.346 426.453 40.2998 756 40.2998Z" stroke="#B39DFF" stroke-width="0.6"/>
<path d="M763 304.3C947.849 304.3 1097.7 454.374 1097.7 639.5C1097.7 824.626 947.849 974.7 763 974.7C578.151 974.7 428.3 824.626 428.3 639.5C428.3 454.374 578.151 304.3 763 304.3Z" stroke="#B39DFF" stroke-width="0.6"/>
<circle cx="756" cy="611" r="850.7" stroke="#B39DFF" stroke-width="0.6"/>
<path d="M45.5 257L45.9051 258.095L47 258.5L45.9051 258.905L45.5 260L45.0949 258.905L44 258.5L45.0949 258.095L45.5 257Z" fill="#F1CBAA"/>
<path d="M802 372L804.161 377.839L810 380L804.161 382.161L802 388L799.839 382.161L794 380L799.839 377.839L802 372Z" fill="#F1CBAA"/>
<path d="M849.5 845L849.905 846.095L851 846.5L849.905 846.905L849.5 848L849.095 846.905L848 846.5L849.095 846.095L849.5 845Z" fill="#F1CBAA"/>
<path d="M83.5 842L83.9051 843.095L85 843.5L83.9051 843.905L83.5 845L83.0949 843.905L82 843.5L83.0949 843.095L83.5 842Z" fill="#F1CBAA"/>
<path d="M133.5 146L134.445 148.555L137 149.5L134.445 150.445L133.5 153L132.555 150.445L130 149.5L132.555 148.555L133.5 146Z" fill="white"/>
<path d="M941 143L942.35 146.65L946 148L942.35 149.35L941 153L939.65 149.35L936 148L939.65 146.65L941 143Z" fill="white"/>
<path d="M939 734L940.35 737.65L944 739L940.35 740.35L939 744L937.65 740.35L934 739L937.65 737.65L939 734Z" fill="white"/>
<path d="M1264 529L1265.35 532.65L1269 534L1265.35 535.35L1264 539L1262.65 535.35L1259 534L1262.65 532.65L1264 529Z" fill="white"/>
<path d="M1404 1044L1405.35 1047.65L1409 1049L1405.35 1050.35L1404 1054L1402.65 1050.35L1399 1049L1402.65 1047.65L1404 1044Z" fill="white"/>
<path d="M992 1298L993.35 1301.65L997 1303L993.35 1304.35L992 1308L990.65 1304.35L987 1303L990.65 1301.65L992 1298Z" fill="white"/>
<path d="M169.5 731L169.905 732.095L171 732.5L169.905 732.905L169.5 734L169.095 732.905L168 732.5L169.095 732.095L169.5 731Z" fill="white"/>
<path d="M142.5 425L142.905 426.095L144 426.5L142.905 426.905L142.5 428L142.095 426.905L141 426.5L142.095 426.095L142.5 425Z" fill="#F1CBAA"/>
<path d="M948.5 422L948.905 423.095L950 423.5L948.905 423.905L948.5 425L948.095 423.905L947 423.5L948.095 423.095L948.5 422Z" fill="#F1CBAA"/>
<path d="M946.5 1013L946.905 1014.09L948 1014.5L946.905 1014.91L946.5 1016L946.095 1014.91L945 1014.5L946.095 1014.09L946.5 1013Z" fill="#F1CBAA"/>
<path d="M235.5 1010L235.905 1011.09L237 1011.5L235.905 1011.91L235.5 1013L235.095 1011.91L234 1011.5L235.095 1011.09L235.5 1010Z" fill="#F1CBAA"/>
<path d="M492.5 291L492.905 292.095L494 292.5L492.905 292.905L492.5 294L492.095 292.905L491 292.5L492.095 292.095L492.5 291Z" fill="#C1C1C1"/>
<path d="M1309.5 423L1309.91 424.095L1311 424.5L1309.91 424.905L1309.5 426L1309.09 424.905L1308 424.5L1309.09 424.095L1309.5 423Z" fill="#C1C1C1"/>
<path d="M1307.5 1014L1307.91 1015.09L1309 1015.5L1307.91 1015.91L1307.5 1017L1307.09 1015.91L1306 1015.5L1307.09 1015.09L1307.5 1014Z" fill="#C1C1C1"/>
<path d="M498 890L499.08 892.92L502 894L499.08 895.08L498 898L496.92 895.08L494 894L496.92 892.92L498 890Z" fill="#C1C1C1"/>
<path d="M158 990L160.701 997.299L168 1000L160.701 1002.7L158 1010L155.299 1002.7L148 1000L155.299 997.299L158 990Z" fill="#C1C1C1"/>
<path d="M481 273L483.701 280.299L491 283L483.701 285.701L481 293L478.299 285.701L471 283L478.299 280.299L481 273Z" fill="#C1C1C1"/>
<path d="M78 360L80.7009 367.299L88 370L80.7009 372.701L78 380L75.2991 372.701L68 370L75.2991 367.299L78 360Z" fill="#C1C1C1"/>
<path d="M577.5 539L577.905 540.095L579 540.5L577.905 540.905L577.5 542L577.095 540.905L576 540.5L577.095 540.095L577.5 539Z" fill="#B39DFF"/>
<path d="M1460.5 551L1460.91 552.095L1462 552.5L1460.91 552.905L1460.5 554L1460.09 552.905L1459 552.5L1460.09 552.095L1460.5 551Z" fill="#B39DFF"/>
<path d="M1458.5 1142L1458.91 1143.09L1460 1143.5L1458.91 1143.91L1458.5 1145L1458.09 1143.91L1457 1143.5L1458.09 1143.09L1458.5 1142Z" fill="#B39DFF"/>
<path d="M683.5 1118L683.905 1119.09L685 1119.5L683.905 1119.91L683.5 1121L683.095 1119.91L682 1119.5L683.095 1119.09L683.5 1118Z" fill="#B39DFF"/>
<path d="M730.5 1308L730.905 1309.09L732 1309.5L730.905 1309.91L730.5 1311L730.095 1309.91L729 1309.5L730.095 1309.09L730.5 1308Z" fill="#B39DFF"/>
<path d="M257 563L262.402 577.598L277 583L262.402 588.402L257 603L251.598 588.402L237 583L251.598 577.598L257 563Z" fill="#F1CBAA"/>
<path d="M1203 869L1208.13 882.868L1222 888L1208.13 893.132L1203 907L1197.87 893.132L1184 888L1197.87 882.868L1203 869Z" fill="#F1CBAA"/>
<path d="M1157.5 500L1157.91 501.095L1159 501.5L1157.91 501.905L1157.5 503L1157.09 501.905L1156 501.5L1157.09 501.095L1157.5 500Z" fill="#F1CBAA"/>
<path d="M1159 1091L1160.35 1094.65L1164 1096L1160.35 1097.35L1159 1101L1157.65 1097.35L1154 1096L1157.65 1094.65L1159 1091Z" fill="#F1CBAA"/>
<path d="M389.5 1088L389.905 1089.09L391 1089.5L389.905 1089.91L389.5 1091L389.095 1089.91L388 1089.5L389.095 1089.09L389.5 1088Z" fill="#F1CBAA"/>
<g filter="url(#filter0_d_306_1504)">
<path d="M642 143L642.54 144.46L644 145L642.54 145.54L642 147L641.46 145.54L640 145L641.46 144.46L642 143Z" fill="#F1CBAA"/>
</g>
<g filter="url(#filter1_d_306_1504)">
<path d="M1400 168L1402.43 174.569L1409 177L1402.43 179.431L1400 186L1397.57 179.431L1391 177L1397.57 174.569L1400 168Z" fill="#F1CBAA"/>
</g>
<g filter="url(#filter2_d_306_1504)">
<path d="M1449 731L1450.35 734.65L1454 736L1450.35 737.35L1449 741L1447.65 737.35L1444 736L1447.65 734.65L1449 731Z" fill="#F1CBAA"/>
</g>
<g filter="url(#filter3_d_306_1504)">
<path d="M680 728L680.54 729.46L682 730L680.54 730.54L680 732L679.46 730.54L678 730L679.46 729.46L680 728Z" fill="#F1CBAA"/>
</g>
<path d="M333 54L334.621 58.3795L339 60L334.621 61.6205L333 66L331.379 61.6205L327 60L331.379 58.3795L333 54Z" fill="#B39DFF"/>
<path d="M1134.5 51L1134.91 52.0949L1136 52.5L1134.91 52.9051L1134.5 54L1134.09 52.9051L1133 52.5L1134.09 52.0949L1134.5 51Z" fill="#B39DFF"/>
<path d="M1132.5 642L1132.91 643.095L1134 643.5L1132.91 643.905L1132.5 645L1132.09 643.905L1131 643.5L1132.09 643.095L1132.5 642Z" fill="#B39DFF"/>
<path d="M366.5 639L366.905 640.095L368 640.5L366.905 640.905L366.5 642L366.095 640.905L365 640.5L366.095 640.095L366.5 639Z" fill="#B39DFF"/>
<path d="M104.5 14L104.905 15.0949L106 15.5L104.905 15.9051L104.5 17L104.095 15.9051L103 15.5L104.095 15.0949L104.5 14Z" fill="#F1CBAA"/>
<path d="M910.5 11L910.905 12.0949L912 12.5L910.905 12.9051L910.5 14L910.095 12.9051L909 12.5L910.095 12.0949L910.5 11Z" fill="#F1CBAA"/>
<path d="M884.5 600L884.905 601.095L886 601.5L884.905 601.905L884.5 603L884.095 601.905L883 601.5L884.095 601.095L884.5 600Z" fill="#F1CBAA"/>
<path d="M142.5 599L142.905 600.095L144 600.5L142.905 600.905L142.5 602L142.095 600.905L141 600.5L142.095 600.095L142.5 599Z" fill="#F1CBAA"/>
<path d="M40.5 536L40.9051 537.095L42 537.5L40.9051 537.905L40.5 539L40.0949 537.905L39 537.5L40.0949 537.095L40.5 536Z" fill="white"/>
<path d="M681.5 603L681.905 604.095L683 604.5L681.905 604.905L681.5 606L681.095 604.905L680 604.5L681.095 604.095L681.5 603Z" fill="white"/>
<path d="M795.5 1017L799.146 1026.85L809 1030.5L799.146 1034.15L795.5 1044L791.854 1034.15L782 1030.5L791.854 1026.85L795.5 1017Z" fill="white"/>
<path d="M1083.5 1271L1083.91 1272.09L1085 1272.5L1083.91 1272.91L1083.5 1274L1083.09 1272.91L1082 1272.5L1083.09 1272.09L1083.5 1271Z" fill="white"/>
<path d="M1257.5 1201L1257.91 1202.09L1259 1202.5L1257.91 1202.91L1257.5 1204L1257.09 1202.91L1256 1202.5L1257.09 1202.09L1257.5 1201Z" fill="white"/>
<path d="M1160.5 839L1160.91 840.095L1162 840.5L1160.91 840.905L1160.5 842L1160.09 840.905L1159 840.5L1160.09 840.095L1160.5 839Z" fill="white"/>
<path d="M522.5 1268L522.905 1269.09L524 1269.5L522.905 1269.91L522.5 1271L522.095 1269.91L521 1269.5L522.095 1269.09L522.5 1268Z" fill="white"/>
<path d="M302 1213L306.862 1226.14L320 1231L306.862 1235.86L302 1249L297.138 1235.86L284 1231L297.138 1226.14L302 1213Z" fill="white"/>
<path d="M886.5 1238L886.905 1239.09L888 1239.5L886.905 1239.91L886.5 1241L886.095 1239.91L885 1239.5L886.095 1239.09L886.5 1238Z" fill="white"/>
<path d="M78.5 1121L78.9051 1122.09L80 1122.5L78.9051 1122.91L78.5 1124L78.0949 1122.91L77 1122.5L78.0949 1122.09L78.5 1121Z" fill="white"/>
</g>
<defs>
<filter id="filter0_d_306_1504" x="636" y="143" width="12" height="12" filterUnits="userSpaceOnUse" color-interpolation-filters="sRGB">
<feFlood flood-opacity="0" result="BackgroundImageFix"/>
<feColorMatrix in="SourceAlpha" type="matrix" values="0 0 0 0 0 0 0 0 0 0 0 0 0 0 0 0 0 0 127 0" result="hardAlpha"/>
<feOffset dy="4"/>
<feGaussianBlur stdDeviation="2"/>
<feComposite in2="hardAlpha" operator="out"/>
<feColorMatrix type="matrix" values="0 0 0 0 0 0 0 0 0 0 0 0 0 0 0 0 0 0 0.25 0"/>
<feBlend mode="normal" in2="BackgroundImageFix" result="effect1_dropShadow_306_1504"/>
<feBlend mode="normal" in="SourceGraphic" in2="effect1_dropShadow_306_1504" result="shape"/>
</filter>
<filter id="filter1_d_306_1504" x="1387" y="168" width="26" height="26" filterUnits="userSpaceOnUse" color-interpolation-filters="sRGB">
<feFlood flood-opacity="0" result="BackgroundImageFix"/>
<feColorMatrix in="SourceAlpha" type="matrix" values="0 0 0 0 0 0 0 0 0 0 0 0 0 0 0 0 0 0 127 0" result="hardAlpha"/>
<feOffset dy="4"/>
<feGaussianBlur stdDeviation="2"/>
<feComposite in2="hardAlpha" operator="out"/>
<feColorMatrix type="matrix" values="0 0 0 0 0 0 0 0 0 0 0 0 0 0 0 0 0 0 0.25 0"/>
<feBlend mode="normal" in2="BackgroundImageFix" result="effect1_dropShadow_306_1504"/>
<feBlend mode="normal" in="SourceGraphic" in2="effect1_dropShadow_306_1504" result="shape"/>
</filter>
<filter id="filter2_d_306_1504" x="1440" y="731" width="18" height="18" filterUnits="userSpaceOnUse" color-interpolation-filters="sRGB">
<feFlood flood-opacity="0" result="BackgroundImageFix"/>
<feColorMatrix in="SourceAlpha" type="matrix" values="0 0 0 0 0 0 0 0 0 0 0 0 0 0 0 0 0 0 127 0" result="hardAlpha"/>
<feOffset dy="4"/>
<feGaussianBlur stdDeviation="2"/>
<feComposite in2="hardAlpha" operator="out"/>
<feColorMatrix type="matrix" values="0 0 0 0 0 0 0 0 0 0 0 0 0 0 0 0 0 0 0.25 0"/>
<feBlend mode="normal" in2="BackgroundImageFix" result="effect1_dropShadow_306_1504"/>
<feBlend mode="normal" in="SourceGraphic" in2="effect1_dropShadow_306_1504" result="shape"/>
</filter>
<filter id="filter3_d_306_1504" x="674" y="728" width="12" height="12" filterUnits="userSpaceOnUse" color-interpolation-filters="sRGB">
<feFlood flood-opacity="0" result="BackgroundImageFix"/>
<feColorMatrix in="SourceAlpha" type="matrix" values="0 0 0 0 0 0 0 0 0 0 0 0 0 0 0 0 0 0 127 0" result="hardAlpha"/>
<feOffset dy="4"/>
<feGaussianBlur stdDeviation="2"/>
<feComposite in2="hardAlpha" operator="out"/>
<feColorMatrix type="matrix" values="0 0 0 0 0 0 0 0 0 0 0 0 0 0 0 0 0 0 0.25 0"/>
<feBlend mode="normal" in2="BackgroundImageFix" result="effect1_dropShadow_306_1504"/>
<feBlend mode="normal" in="SourceGraphic" in2="effect1_dropShadow_306_1504" result="shape"/>
</filter>
<clipPath id="clip0_306_1504">
<rect width="1512" height="1361" fill="white"/>
</clipPath>
</defs>
</svg>
