<?xml version="1.0" encoding="UTF-8"?>
<svg id="Calque_1" xmlns="http://www.w3.org/2000/svg" version="1.1" viewBox="0 0 595.3 841.9">
  <!-- Generator: Adobe Illustrator 29.8.0, SVG Export Plug-In . SVG Version: 2.1.1 Build 160)  -->
  <defs>
    <style>
      .st0 {
        fill: #fff;
      }

      .st1 {
        fill: none;
        stroke: #323366;
        stroke-miterlimit: 10;
        stroke-width: 12px;
      }
    </style>
  </defs>
  <path class="st1" d="M187.1,268.4c-1.8-13.3,18.4-21.3,34.1-13.9,22-21.8,47.7.9,41.6,12,26-4.3,34,11.1,32.1,20.7,53.1,21.9-4.2,71-30.9,41.4-24,20.4-50,11-58-9.3-49.1,11.9-67.9-39.1-18.8-51Z"/>
  <path class="st0" d="M182.1,248.7c-2-17.3,20-27.8,36.9-18.1,23.8-28.4,51.7,1.2,45.1,15.7,28.1-5.6,36.8,14.5,34.7,27,57.5,28.6-4.5,92.6-33.5,53.9-26,26.6-54.2,14.4-62.9-12.1-53.2,15.5-73.6-51-20.4-66.4Z"/>
</svg>